<svg xmlns="http://www.w3.org/2000/svg" viewBox="0 0 640 880" role="img" aria-labelledby="title desc">
  <title id="title">Temporary portrait placeholder</title>
  <desc id="desc">Simple placeholder illustration used to show where a character portrait will appear later.</desc>
  <defs>
    <linearGradient id="bg" x1="0" y1="0" x2="0" y2="1">
      <stop offset="0%" stop-color="#121b2a"/>
      <stop offset="100%" stop-color="#08111a"/>
    </linearGradient>
    <linearGradient id="panel" x1="0" y1="0" x2="1" y2="1">
      <stop offset="0%" stop-color="#182638"/>
      <stop offset="100%" stop-color="#0e1723"/>
    </linearGradient>
  </defs>

  <rect width="640" height="880" fill="url(#bg)"/>
  <circle cx="320" cy="220" r="176" fill="rgba(110,231,255,0.10)"/>
  <circle cx="320" cy="220" r="128" fill="rgba(255,209,102,0.08)"/>

  <rect x="86" y="68" width="468" height="744" rx="36" fill="url(#panel)" stroke="rgba(255,255,255,0.10)" stroke-width="4"/>

  <circle cx="320" cy="286" r="94" fill="#2d425a" stroke="rgba(255,255,255,0.12)" stroke-width="4"/>
  <path d="M192 666c18-109 79-184 128-184 49 0 110 75 128 184Z" fill="#2d425a" stroke="rgba(255,255,255,0.12)" stroke-width="4"/>
  <rect x="235" y="252" width="170" height="18" rx="9" fill="#6ee7ff" opacity="0.75"/>
  <rect x="252" y="304" width="136" height="18" rx="9" fill="#6ee7ff" opacity="0.42"/>
  <rect x="268" y="356" width="104" height="18" rx="9" fill="#6ee7ff" opacity="0.24"/>

  <rect x="164" y="98" width="312" height="76" rx="18" fill="rgba(255,255,255,0.04)" stroke="rgba(255,255,255,0.12)" stroke-width="3"/>
  <text x="320" y="145" text-anchor="middle" fill="#eef4ff" font-size="38" font-family="Arial Black, Arial, sans-serif">TEMP PORTRAIT</text>

  <rect x="164" y="720" width="312" height="62" rx="16" fill="rgba(255,255,255,0.04)" stroke="rgba(255,255,255,0.12)" stroke-width="3"/>
  <text x="320" y="760" text-anchor="middle" fill="#ffd166" font-size="28" font-family="Arial Black, Arial, sans-serif">PLACEHOLDER</text>
</svg>
